<svg width="36" height="36" viewBox="0 0 36 36" fill="none" xmlns="http://www.w3.org/2000/svg">
<g clip-path="url(#clip0_415_2404)">
<path d="M24.2438 1.6875C18.7032 1.6875 14.175 6.1875 14.175 11.7562C14.175 13.8375 14.7938 15.75 15.8625 17.3531L14.175 22.3875L20.0813 20.925C21.3469 21.5156 22.7532 21.825 24.2438 21.825C29.8125 21.825 34.3125 17.325 34.3125 11.7562C34.3125 6.1875 29.8125 1.6875 24.2438 1.6875Z" fill="#9A9A96"/>
<path d="M24.1875 19.4062C28.3814 19.4062 31.7812 16.0064 31.7812 11.8125C31.7812 7.61859 28.3814 4.21875 24.1875 4.21875C19.9936 4.21875 16.5938 7.61859 16.5938 11.8125C16.5938 16.0064 19.9936 19.4062 24.1875 19.4062Z" fill="white"/>
<path d="M19.0406 27.1966C18.9563 27.3935 18.8438 27.5904 18.7594 27.7873C18.5344 28.2935 18.3375 28.2091 17.7188 28.2091C14.9344 28.2373 7.8469 21.1779 7.93127 18.4216C7.9594 17.831 7.8469 17.6341 8.35315 17.381C8.6344 17.2404 8.91565 17.1279 9.1969 16.9873C9.56252 16.7904 7.48127 6.89039 7.08752 6.91852C4.33127 7.00289 1.46252 9.11227 1.46252 14.681C1.46252 22.331 12.1782 34.6779 21.4594 34.6779C26.7188 34.6779 28.8844 32.1185 29.1938 29.531C29.2782 28.9966 19.2656 26.7466 19.0406 27.1966Z" fill="#213F4D"/>
<path d="M29.0813 29.4749C29.1375 29.4749 29.1656 29.503 29.2219 29.5312C29.2781 28.9687 29.25 28.4343 29.1656 27.8999C29.1375 27.6749 28.8281 27.4499 28.6031 27.3937C25.9031 26.7468 23.175 26.128 20.4469 25.5374C20.25 25.5093 19.9125 25.678 19.8 25.8468C19.5469 26.2687 19.2938 26.7187 19.0688 27.1968C22.3875 27.928 25.7344 28.6874 29.0813 29.4749ZM9.22502 17.0155L10.3219 16.4249C10.4906 16.3124 10.6875 15.9749 10.6313 15.778C10.0393 13.0533 9.4205 10.3344 8.77502 7.62178C8.71877 7.39678 8.49377 7.0874 8.26877 7.05928C7.8469 6.9749 7.3969 6.94678 6.9469 6.9749C7.7344 10.2937 8.49377 13.6405 9.22502 17.0155Z" fill="#3C6B81"/>
<path d="M20.25 11.8125H28.125M24.1875 15.75V7.875" stroke="#E44450" stroke-width="2" stroke-miterlimit="10"/>
</g>
<defs>
<clipPath id="clip0_415_2404">
<rect width="36" height="36" fill="white"/>
</clipPath>
</defs>
</svg>
