<svg width="36" height="36" viewBox="0 0 36 36" fill="none" xmlns="http://www.w3.org/2000/svg">
<path d="M29.7 33.75V20.9974C30.0123 21.1014 30.3377 21.1563 30.663 21.1563C31.46 21.1583 32.2254 20.8448 32.792 20.2842C33.0774 20.005 33.3045 19.6719 33.4601 19.3042C33.6157 18.9364 33.6966 18.5415 33.6983 18.1422C33.7021 17.743 33.6268 17.347 33.4767 16.977C33.3266 16.607 33.1048 16.2705 32.8239 15.9867L20.1605 3.15135C19.6043 2.5893 18.837 2.26935 17.9739 2.25C17.5694 2.25144 17.1693 2.33448 16.7976 2.49415C16.426 2.65382 16.0903 2.88684 15.8108 3.17925L3.17478 15.9872C2.89426 16.2709 2.67269 16.6074 2.52286 16.9772C2.37302 17.347 2.29789 17.7428 2.30178 18.1417C2.30329 18.5407 2.38402 18.9353 2.53929 19.3028C2.69456 19.6703 2.92128 20.0033 3.20628 20.2824C4.04418 21.1113 5.24838 21.3466 6.30003 20.9974V33.75H29.7ZM27.9 31.95H8.10003V19.6497L18 9.64035L27.9 19.6497V31.95ZM6.22353 18.9869C5.99277 19.221 5.67853 19.3539 5.34982 19.3565C5.0211 19.3592 4.70478 19.2312 4.47033 19.0008C4.35422 18.8872 4.26185 18.7516 4.19858 18.602C4.13531 18.4523 4.10241 18.2916 4.10178 18.1291C4.1 17.9665 4.13051 17.8051 4.19153 17.6543C4.25255 17.5036 4.34288 17.3664 4.45728 17.2507L17.1018 4.43385C17.3358 4.18905 17.6508 4.05225 17.9604 4.05C18.2201 4.05585 18.5904 4.12425 18.8793 4.41675L31.5419 17.2498C31.7741 17.4857 31.901 17.7979 31.8983 18.1291C31.8976 18.292 31.8645 18.4531 31.8009 18.6031C31.7373 18.7531 31.6445 18.8889 31.5279 19.0026C31.2936 19.2322 30.9778 19.3597 30.6497 19.357C30.3216 19.3543 30.008 19.2217 29.7774 18.9882L18 7.0812L6.22353 18.9869Z" fill="#213F4D"/>
<path d="M14.9107 23.7375C16.4925 23.7375 17.7795 22.4505 17.7795 20.8688C17.7795 19.287 16.4925 18 14.9107 18C13.329 18 12.042 19.287 12.042 20.8688C12.042 22.4505 13.329 23.7375 14.9107 23.7375ZM14.9107 19.8C15.1941 19.8004 15.4657 19.9131 15.6661 20.1134C15.8664 20.3138 15.9791 20.5854 15.9795 20.8688C15.9795 21.4583 15.4998 21.9375 14.9107 21.9375C14.3217 21.9375 13.842 21.4578 13.842 20.8688C13.8423 20.5854 13.9551 20.3138 14.1554 20.1134C14.3558 19.9131 14.6274 19.8004 14.9107 19.8Z" fill="#213F4D"/>
<path d="M20.6483 23.7375C22.2305 23.7375 23.517 22.4505 23.517 20.8688C23.517 19.287 22.23 18 20.6483 18C19.0665 18 17.7795 19.287 17.7795 20.8688C17.7795 22.4505 19.0665 23.7375 20.6483 23.7375ZM20.6483 19.8C21.2378 19.8 21.717 20.2797 21.717 20.8688C21.717 21.4578 21.2378 21.9375 20.6483 21.9375C20.0588 21.9375 19.5795 21.4583 19.5795 20.8688C19.5795 20.2793 20.0592 19.8 20.6483 19.8Z" fill="#213F4D"/>
<path d="M17.7794 28.4748C19.3611 28.4748 20.6481 27.1878 20.6481 25.6061C20.6481 24.0243 19.3611 22.7373 17.7794 22.7373C16.1976 22.7373 14.9106 24.0243 14.9106 25.6061C14.9106 27.1878 16.1976 28.4748 17.7794 28.4748ZM17.7794 24.5373C18.0627 24.5377 18.3344 24.6504 18.5347 24.8507C18.7351 25.0511 18.8478 25.3227 18.8481 25.6061C18.8481 26.1956 18.3684 26.6748 17.7794 26.6748C17.1903 26.6748 16.7106 26.1951 16.7106 25.6061C16.711 25.3227 16.8237 25.0511 17.0241 24.8507C17.2244 24.6504 17.4961 24.5377 17.7794 24.5373Z" fill="#213F4D"/>
</svg>
