<svg width="32" height="32" viewBox="0 0 32 32" fill="none" xmlns="http://www.w3.org/2000/svg">
<g clip-path="url(#clip0_415_2299)">
<path d="M16 31.75C24.6985 31.75 31.75 24.6985 31.75 16C31.75 7.30152 24.6985 0.25 16 0.25C7.30152 0.25 0.25 7.30152 0.25 16C0.25 24.6985 7.30152 31.75 16 31.75Z" fill="#B6E5FF"/>
<path d="M11.5 20.2502C11.1283 20.2523 10.7618 20.3377 10.4275 20.5002C10.239 19.524 9.6938 18.6529 8.89804 18.0569C8.10228 17.4608 7.11305 17.1824 6.12322 17.2761C5.13339 17.3697 4.21391 17.8287 3.54405 18.5634C2.8742 19.2981 2.50198 20.256 2.49997 21.2502C2.49997 21.2727 2.49997 21.2952 2.49997 21.3152C2.2248 21.2433 1.93746 21.2309 1.65712 21.2789C1.37678 21.3268 1.10989 21.434 0.874257 21.5933C0.638625 21.7525 0.439673 21.9602 0.290676 22.2025C0.14168 22.4447 0.0460658 22.716 0.0102154 22.9981C-0.025635 23.2803 -0.000897363 23.5668 0.0827774 23.8386C0.166452 24.1105 0.30714 24.3613 0.495451 24.5745C0.683763 24.7876 0.915367 24.9581 1.17481 25.0747C1.43425 25.1912 1.71556 25.251 1.99997 25.2502H11.5C12.163 25.2502 12.7989 24.9868 13.2677 24.518C13.7366 24.0492 14 23.4133 14 22.7502C14 22.0872 13.7366 21.4513 13.2677 20.9825C12.7989 20.5136 12.163 20.2502 11.5 20.2502Z" fill="#B6E5FF"/>
<path d="M29.25 4.25023C28.8783 4.25231 28.5118 4.33774 28.1775 4.50023C27.989 3.524 27.4438 2.65294 26.648 2.05686C25.8523 1.46079 24.863 1.18245 23.8732 1.27609C22.8834 1.36974 21.9639 1.82866 21.2941 2.56339C20.6242 3.29812 20.252 4.25598 20.25 5.25023C20.25 5.27273 20.25 5.29523 20.25 5.31523C19.9748 5.24332 19.6875 5.23092 19.4071 5.27886C19.1268 5.32681 18.8599 5.43399 18.6243 5.59326C18.3886 5.75253 18.1897 5.96023 18.0407 6.20249C17.8917 6.44475 17.7961 6.716 17.7602 6.99814C17.7244 7.28028 17.7491 7.56683 17.8328 7.83865C17.9165 8.11047 18.0571 8.36132 18.2455 8.57446C18.4338 8.7876 18.6654 8.95813 18.9248 9.07466C19.1843 9.19119 19.4656 9.25105 19.75 9.25023H29.25C29.913 9.25023 30.5489 8.98684 31.0177 8.518C31.4866 8.04916 31.75 7.41328 31.75 6.75023C31.75 6.08719 31.4866 5.45131 31.0177 4.98247C30.5489 4.51363 29.913 4.25023 29.25 4.25023Z" fill="#B6E5FF"/>
<path d="M29.25 3.00023C28.8783 3.00231 28.5118 3.08774 28.1775 3.25023C27.989 2.274 27.4438 1.40294 26.648 0.806864C25.8523 0.210793 24.863 -0.0675541 23.8732 0.0260912C22.8834 0.119736 21.9639 0.578661 21.2941 1.31339C20.6242 2.04812 20.252 3.00598 20.25 4.00023C20.25 4.02273 20.25 4.04523 20.25 4.06523C19.9748 3.99332 19.6875 3.98092 19.4071 4.02886C19.1268 4.07681 18.8599 4.18399 18.6243 4.34326C18.3886 4.50253 18.1897 4.71023 18.0407 4.95249C17.8917 5.19475 17.7961 5.466 17.7602 5.74814C17.7244 6.03028 17.7491 6.31683 17.8328 6.58865C17.9165 6.86047 18.0571 7.11132 18.2455 7.32446C18.4338 7.5376 18.6654 7.70813 18.9248 7.82466C19.1843 7.94119 19.4656 8.00105 19.75 8.00023H29.25C29.913 8.00023 30.5489 7.73684 31.0177 7.268C31.4866 6.79916 31.75 6.16328 31.75 5.50023C31.75 4.83719 31.4866 4.20131 31.0177 3.73247C30.5489 3.26363 29.913 3.00023 29.25 3.00023Z" fill="#EEFAFF"/>
<path d="M11.5 19.0002C11.1283 19.0023 10.7618 19.0877 10.4275 19.2502C10.239 18.274 9.6938 17.4029 8.89804 16.8069C8.10228 16.2108 7.11305 15.9324 6.12322 16.0261C5.13339 16.1197 4.21391 16.5787 3.54405 17.3134C2.8742 18.0481 2.50198 19.006 2.49997 20.0002C2.49997 20.0227 2.49997 20.0452 2.49997 20.0652C2.2248 19.9933 1.93746 19.9809 1.65712 20.0289C1.37678 20.0768 1.10989 20.184 0.874257 20.3433C0.638625 20.5025 0.439673 20.7102 0.290676 20.9525C0.14168 21.1947 0.0460658 21.466 0.0102154 21.7481C-0.025635 22.0303 -0.000897363 22.3168 0.0827774 22.5886C0.166452 22.8605 0.30714 23.1113 0.495451 23.3245C0.683763 23.5376 0.915367 23.7081 1.17481 23.8247C1.43425 23.9412 1.71556 24.001 1.99997 24.0002H11.5C12.163 24.0002 12.7989 23.7368 13.2677 23.268C13.7366 22.7992 14 22.1633 14 21.5002C14 20.8372 13.7366 20.2013 13.2677 19.7325C12.7989 19.2636 12.163 19.0002 11.5 19.0002Z" fill="#EEFAFF"/>
<path d="M17.62 8.5277C17.62 8.5277 18.47 9.1127 19.12 7.0127C19.11 7.0127 17.5775 7.2777 17.62 8.5277Z" fill="#56771D"/>
<path d="M18.085 3.59758C18.085 3.59758 18.5525 4.51758 20.1175 2.98008C20.12 2.97758 18.6475 2.47758 18.085 3.59758Z" fill="#56771D"/>
<path d="M17.1425 11.8577C17.685 11.1077 18.2525 10.0652 18.0175 8.98268C17.8175 8.06768 17.21 7.90268 16.8925 6.85768C16.575 5.81268 16.605 3.99268 17.6425 3.48268C18.49 3.06518 19.8925 3.56268 20.7675 4.85768" stroke="#AEAF6B" stroke-width="4" stroke-miterlimit="10"/>
<path d="M15.145 3.00017C15.145 3.00017 17.215 1.25017 17.195 1.31267C17.175 1.37517 18.925 1.49517 18.925 1.49517L20.1225 1.99517C20.1225 1.99517 19.6225 3.70267 19.645 3.78267C19.6675 3.86267 19.6025 5.09517 19.6025 5.09517L17.925 5.73767L16.895 5.52767L15.925 6.36267L14.05 6.61267L14.55 7.61267L13.645 8.54267L13.1175 8.46767L11.55 7.01767L12.55 4.95017L15.145 3.00017Z" fill="#56771D"/>
<path d="M14.2675 11.7327C14.23 10.7627 14.0175 9.3827 13.0175 8.3577C12.3275 7.6452 11.915 7.7752 11.1425 6.9827C10.5278 6.34052 10.0813 5.55647 9.84253 4.7002" stroke="#AEAF6B" stroke-width="4" stroke-miterlimit="10"/>
<path d="M12.885 3.2876C12.885 3.2876 14.635 5.1326 16.065 2.2301C16.065 2.2301 12.86 1.1301 12.885 3.2876Z" fill="#56771D"/>
<path d="M20.7925 4.69987C20.7925 4.69987 18.2575 4.62487 19.2925 7.69987C19.2925 7.69487 22.335 6.20737 20.7925 4.69987Z" fill="#56771D"/>
<path d="M16.3 3.05483C16.3 3.05483 14.455 4.80483 17.3575 6.23483C17.3575 6.23233 18.4575 3.02983 16.3 3.05483Z" fill="#56771D"/>
<path d="M10.8925 5.73229C10.66 5.64979 10.6175 3.98229 11.6425 3.23229C12.0225 2.94979 12.8175 2.59229 13.2675 2.98229C13.7175 3.37229 13.635 4.23229 13.2675 4.48229C13 4.66729 12.745 4.39479 12.2675 4.48229C11.3825 4.64729 11.095 5.80479 10.8925 5.73229Z" fill="#56771D"/>
<path d="M22.7675 5.35743C22.58 5.57243 21.715 4.85743 21.1425 5.23243C20.83 5.44493 20.8925 5.79993 20.6425 5.85743C20.2825 5.94243 19.615 5.28993 19.6425 4.60743C19.67 3.92493 20.3925 3.38993 21.0175 3.35743C22.22 3.29743 23 5.08993 22.7675 5.35743Z" fill="#56771D"/>
<path d="M17.2675 7.48243C17.08 7.69743 16.215 6.98243 15.6425 7.35743C15.33 7.56993 15.3925 7.92493 15.1425 7.98243C14.7825 8.06743 14.115 7.41493 14.1425 6.73243C14.17 6.04993 14.8925 5.51493 15.5175 5.48243C16.72 5.42243 17.5 7.21493 17.2675 7.48243Z" fill="#56771D"/>
<path d="M17.8925 2.85743C17.705 3.07243 16.84 2.35743 16.2675 2.73243C15.955 2.94493 16.0175 3.29993 15.7675 3.35743C15.4075 3.44243 14.74 2.78993 14.7675 2.10743C14.795 1.42493 15.5175 0.889929 16.1425 0.857429C17.345 0.797429 18.1275 2.58993 17.8925 2.85743Z" fill="#56771D"/>
<path d="M19.72 4.60481C19.72 4.60481 18.3175 6.71981 21.47 7.45981C21.475 7.45981 21.8175 4.08981 19.72 4.60481Z" fill="#56771D"/>
<path d="M19.1425 4.23264C18.545 4.00264 17.9425 4.56014 17.8925 4.60764C17.0725 5.38764 17.3675 6.92764 17.6425 6.98264C17.9175 7.03764 18.1425 5.63264 19.0175 5.48264C19.3925 5.41764 19.635 5.62764 19.7675 5.48264C19.9675 5.26264 19.7075 4.45264 19.1425 4.23264Z" fill="#56771D"/>
<path d="M15.7675 1.10764C15.17 0.877645 14.5675 1.43514 14.5175 1.48264C13.6975 2.26264 13.9925 3.80264 14.2675 3.85764C14.5425 3.91264 14.7675 2.50764 15.6425 2.35764C16.0175 2.29264 16.26 2.50264 16.3925 2.35764C16.5925 2.13764 16.3325 1.32764 15.7675 1.10764Z" fill="#56771D"/>
<path d="M12.6425 3.60743C12.9375 3.37493 13.6425 3.57493 13.8925 3.98243C14.095 4.30743 13.8725 4.53993 14.0175 4.98243C14.2675 5.73243 15.195 5.88993 15.1425 6.10743C15.09 6.32493 14.01 6.51743 13.2675 5.98243C12.4125 5.36743 12.215 3.94493 12.6425 3.60743Z" fill="#56771D"/>
<path d="M14.7675 5.73243C15.0625 5.49993 15.7675 5.69993 16.0175 6.10743C16.22 6.43243 15.9975 6.66493 16.1425 7.10743C16.3925 7.85743 17.32 8.01493 17.2675 8.23243C17.215 8.44993 16.135 8.64243 15.3925 8.10743C14.5375 7.49993 14.34 6.06993 14.7675 5.73243Z" fill="#56771D"/>
<path d="M13.6425 11.6074C14.97 10.2349 15.2425 9.10742 15.2675 8.35742C15.33 6.55242 13.995 5.60742 14.2675 3.98242C14.455 2.85242 15.2975 2.05992 15.8925 1.60742" stroke="#AEAF6B" stroke-width="4" stroke-miterlimit="10"/>
<path d="M11.0925 3.38227C10.4575 3.44977 10.1725 4.21977 10.15 4.28477C9.77502 5.35227 10.75 6.58977 11 6.51227C11.25 6.43477 10.8325 5.08227 11.5425 4.54977C11.8475 4.32227 12.1575 4.39727 12.21 4.20727C12.2975 3.92477 11.6975 3.31727 11.0925 3.38227Z" fill="#56771D"/>
<path d="M15.47 1.35481C15.47 1.35481 14.0675 3.46981 17.22 4.20981C17.225 4.20981 17.5675 0.839808 15.47 1.35481Z" fill="#56771D"/>
<path d="M10.845 4.47981C10.845 4.47981 9.44247 6.59481 12.595 7.33481C12.6 7.33481 12.9425 3.96481 10.845 4.47981Z" fill="#56771D"/>
<path d="M14.2075 7.4224C14.2075 7.4224 15.035 6.8049 13.25 5.5249C13.25 5.5249 13 7.0599 14.2075 7.4224Z" fill="#56771D"/>
<path d="M11.6425 11.6074C11.8654 11.2588 12.0138 10.8679 12.0783 10.4591C12.1428 10.0504 12.1221 9.63275 12.0175 9.23242C11.595 7.73242 10.12 7.26242 10.0175 7.23242" stroke="#AEAF6B" stroke-width="4" stroke-miterlimit="10"/>
<path d="M9.81494 8.94231C10.0024 8.94231 10.0649 8.21731 10.5099 8.13231C10.7599 8.08481 10.8924 8.27481 11.0299 8.18981C11.2349 8.06231 11.2424 7.43981 10.9149 7.14731C10.7369 7.01511 10.5187 6.9486 10.2972 6.95908C10.0757 6.96956 9.86466 7.05639 9.69994 7.20481C9.11494 7.73481 9.58244 8.92481 9.81494 8.94231Z" fill="#56771D"/>
<path d="M10.9299 7.4375C10.9299 7.4375 12.5549 7.7725 11.4649 9.49C11.4624 9.5 9.73494 8.125 10.9299 7.4375Z" fill="#56771D"/>
<path d="M10.6825 7.0323C10.8525 6.6498 11.39 6.6273 11.4325 6.6273C12.1825 6.6073 12.75 7.4598 12.6475 7.6123C12.545 7.7648 11.79 7.2198 11.3175 7.5548C11.115 7.6973 11.0975 7.9073 10.97 7.9023C10.7775 7.8898 10.5225 7.3948 10.6825 7.0323Z" fill="#56771D"/>
<path d="M16.8925 5.35742C16.8658 5.10133 16.7519 4.86221 16.5698 4.68014C16.3877 4.49807 16.1486 4.38413 15.8925 4.35742C15.7575 4.35742 15.5625 4.40492 14.7675 5.35742C14.115 6.13992 13.79 6.53742 13.8925 6.73242C14.0475 7.02992 14.8775 6.90992 15.3925 6.73242C15.575 6.66992 16.9375 6.20242 16.8925 5.35742Z" fill="#56771D"/>
<path d="M14.0699 8.6527C14.0699 8.6527 13.2199 9.2377 12.5699 7.1377C12.5799 7.1377 14.1099 7.4027 14.0699 8.6527Z" fill="#82AD44"/>
<path d="M15.6725 11.7324C15.71 10.7624 15.9225 9.38242 16.9225 8.35742C17.6125 7.64492 18.025 7.77492 18.7975 6.98242C19.0075 6.76492 20.52 5.16492 20.1725 3.10742C20.0485 2.41706 19.747 1.77087 19.2975 1.23242" stroke="#C6CC7D" stroke-width="4" stroke-miterlimit="10"/>
<path d="M14.5475 11.8577C14.005 11.1077 13.4375 10.0652 13.6725 8.98268C13.8725 8.06768 14.48 7.90268 14.7975 6.85768C15.115 5.81268 15.085 3.99268 14.0475 3.48268C13.2 3.06518 11.7975 3.56268 10.9225 4.85768" stroke="#C6CC7D" stroke-width="4" stroke-miterlimit="10"/>
<path d="M19.68 1.41254C19.68 1.41254 17.9375 3.25004 16.5 0.355038C16.5 0.355038 19.7025 -0.749961 19.68 1.41254Z" fill="#618C20"/>
<path d="M10.3975 4.69987C10.3975 4.69987 12.9325 4.62487 11.8975 7.69987C11.8975 7.69487 8.85505 6.20737 10.3975 4.69987Z" fill="#618C20"/>
<path d="M14.89 3.05483C14.89 3.05483 16.735 4.80483 13.8325 6.23483C13.8325 6.23233 12.7325 3.02983 14.89 3.05483Z" fill="#618C20"/>
<path d="M21.6725 3.85729C21.905 3.77479 21.9475 2.10729 20.9225 1.35729C20.5425 1.07479 19.7475 0.717293 19.2975 1.10729C18.8475 1.49729 18.93 2.35729 19.2975 2.60729C19.565 2.79229 19.82 2.51979 20.2975 2.60729C21.1825 2.77229 21.47 3.92979 21.6725 3.85729Z" fill="#82AD44"/>
<path d="M8.42254 5.35743C8.61004 5.57243 9.47504 4.85743 10.0475 5.23243C10.36 5.44493 10.2975 5.79993 10.5475 5.85743C10.9075 5.94243 11.575 5.28993 11.5475 4.60743C11.52 3.92493 10.7975 3.38993 10.1725 3.35743C8.97004 3.29743 8.18754 5.08993 8.42254 5.35743Z" fill="#749934"/>
<path d="M13.2975 2.85743C13.485 3.07243 14.35 2.35743 14.9225 2.73243C15.235 2.94493 15.1725 3.29993 15.4225 3.35743C15.7825 3.44243 16.45 2.78993 16.4225 2.10743C16.395 1.42493 15.6725 0.889929 15.0475 0.857429C13.845 0.797429 13.0625 2.58993 13.2975 2.85743Z" fill="#749934"/>
<path d="M11.0924 4.60481C11.0924 4.60481 12.4949 6.71981 9.34244 7.45981C9.33994 7.45981 8.99994 4.08981 11.0924 4.60481Z" fill="#82AD44"/>
<path d="M11.4225 4.23264C12.02 4.00264 12.6225 4.56014 12.6725 4.60764C13.4925 5.38764 13.1975 6.92764 12.9225 6.98264C12.6475 7.03764 12.4225 5.63264 11.5475 5.48264C11.1725 5.41764 10.93 5.62764 10.7975 5.48264C10.5975 5.26264 10.8575 4.45264 11.4225 4.23264Z" fill="#82AD44"/>
<path d="M15.4225 1.10764C16.02 0.877645 16.6225 1.43514 16.6725 1.48264C17.4925 2.26264 17.1975 3.80264 16.9225 3.85764C16.6475 3.91264 16.4225 2.50764 15.5475 2.35764C15.1725 2.29264 14.93 2.50264 14.7975 2.35764C14.5975 2.13764 14.8575 1.32764 15.4225 1.10764Z" fill="#82AD44"/>
<path d="M19.9226 1.73243C19.6276 1.49993 18.9226 1.69993 18.6726 2.10743C18.4701 2.43243 18.6926 2.66493 18.5476 3.10743C18.2976 3.85743 17.3701 4.01493 17.4226 4.23243C17.4751 4.44993 18.5551 4.64243 19.2976 4.10743C20.1526 3.49993 20.3501 2.06993 19.9226 1.73243Z" fill="#82AD44"/>
<path d="M17.5475 11.6074C16.22 10.2349 15.9475 9.10742 15.9225 8.35742C15.86 6.55242 17.195 5.60742 16.9225 3.98242C16.735 2.85242 15.8925 2.05992 15.2975 1.60742" stroke="#C6CC7D" stroke-width="4" stroke-miterlimit="10"/>
<path d="M20.095 3.38227C20.73 3.44977 21.015 4.21977 21.0375 4.28477C21.4125 5.35227 20.4475 6.58977 20.18 6.51227C19.9125 6.43477 20.3475 5.08227 19.6375 4.54977C19.3325 4.32227 19.0225 4.39727 18.97 4.20727C18.8925 3.92477 19.5 3.31727 20.095 3.38227Z" fill="#618C20"/>
<path d="M15.7175 1.35481C15.7175 1.35481 17.12 3.46981 13.9675 4.20981C13.965 4.20981 13.6225 0.839808 15.7175 1.35481Z" fill="#82AD44"/>
<path d="M20.3424 4.47981C20.3424 4.47981 21.7449 6.59481 18.5924 7.33481C18.5899 7.33481 18.2499 3.96481 20.3424 4.47981Z" fill="#82AD44"/>
<path d="M16.98 8.6724C16.98 8.6724 16.1525 8.0549 17.935 6.7749C17.9375 6.7749 18.18 8.3099 16.98 8.6724Z" fill="#82AD44"/>
<path d="M19.2975 11.6074C19.0746 11.2588 18.9262 10.8679 18.8617 10.4591C18.7971 10.0504 18.8178 9.63275 18.9225 9.23242C19.345 7.73242 20.82 7.26242 20.9225 7.23242" stroke="#C6CC7D" stroke-width="4" stroke-miterlimit="10"/>
<path d="M21.375 8.94231C21.1875 8.94231 21.125 8.21731 20.68 8.13231C20.43 8.08481 20.2975 8.27481 20.16 8.18981C19.955 8.06231 19.9475 7.43981 20.275 7.14731C20.453 7.01511 20.6713 6.9486 20.8928 6.95908C21.1142 6.96956 21.3253 7.05639 21.49 7.20481C22.075 7.73481 21.6075 8.92481 21.375 8.94231Z" fill="#618C20"/>
<path d="M20.5 7.4375C20.5 7.4375 18.885 7.7725 19.975 9.5C19.975 9.5 21.705 8.125 20.5 7.4375Z" fill="#82AD44"/>
<path d="M20.5001 7.0323C20.3301 6.6498 19.7926 6.6273 19.7501 6.6273C19.0001 6.6073 18.4326 7.4598 18.5351 7.6123C18.6376 7.7648 19.3926 7.2198 19.8651 7.5548C20.0676 7.6973 20.0851 7.9073 20.2126 7.9023C20.4101 7.8898 20.6676 7.3948 20.5001 7.0323Z" fill="#82AD44"/>
<path d="M14.2975 5.35742C14.3242 5.10133 14.4381 4.86221 14.6202 4.68014C14.8023 4.49807 15.0414 4.38413 15.2975 4.35742C15.4325 4.35742 15.6275 4.40492 16.4225 5.35742C17.075 6.13992 17.4 6.53742 17.2975 6.73242C17.1425 7.02992 16.3125 6.90992 15.7975 6.73242C15.615 6.66992 14.25 6.20242 14.2975 5.35742Z" fill="#82AD44"/>
<path d="M26.9 10.8027C26.9 10.8027 26.9 10.8177 26.9 10.8252C27.1925 10.7202 27 10.7502 26.9 10.8027Z" fill="#513F29"/>
<path d="M27.3575 11.2502L27.39 11.0577C27.2375 11.0177 27.14 11.0002 27.14 11.0002C26.7675 10.9377 26.81 10.8552 26.905 10.8027C26.765 10.2502 25.1325 10.2227 24.35 9.75017C23.6625 9.33767 23.02 9.15267 21.365 9.50017C19.82 9.82517 19.69 9.44017 17.5825 9.75017C16.7925 9.88212 15.9952 9.96561 15.195 10.0002C13.48 10.1302 13.02 9.78267 11.015 9.50017C9.7975 9.33017 7.705 9.03767 6.87 9.91517C6.15 9.94267 5.62 10.5927 4.845 10.7502C4.71785 10.9081 4.60253 11.0752 4.5 11.2502H27.3575Z" fill="#513F29"/>
<path d="M16.53 4.22772C16.53 4.22772 17.38 3.64272 18.03 5.74272C18.02 5.75022 16.5 5.48022 16.53 4.22772Z" fill="#82AD44"/>
<path d="M13.1024 3.59758C13.1024 3.59758 12.6349 4.51758 11.0699 2.98008C11.0699 2.97758 12.5424 2.47758 13.1024 3.59758Z" fill="#82AD44"/>
<path d="M16 13H4.5L5.115 15.16C5.15301 15.3945 5.27325 15.6078 5.45419 15.7617C5.63513 15.9156 5.86495 16.0001 6.1025 16H25.9C26.1375 16.0001 26.3674 15.9156 26.5483 15.7617C26.7293 15.6078 26.8495 15.3945 26.8875 15.16L27.5 13H16Z" fill="#D48051"/>
<path d="M5.3 15.5925C7.5025 15.5925 7.375 14.055 7.3 13.6725L7 13H4.5L5.115 15.16C5.1414 15.3168 5.20482 15.4651 5.3 15.5925Z" fill="#E6A27B"/>
<path d="M27 11H5C4.44772 11 4 11.4477 4 12C4 12.5523 4.44772 13 5 13H27C27.5523 13 28 12.5523 28 12C28 11.4477 27.5523 11 27 11Z" fill="#D48051"/>
<path d="M5 11C4.73478 11 4.48043 11.1054 4.29289 11.2929C4.10536 11.4804 4 11.7348 4 12C4 12.2652 4.10536 12.5196 4.29289 12.7071C4.48043 12.8946 4.73478 13 5 13H19.75C20.2804 13 20.7891 12.7893 21.1642 12.4142C21.5393 12.0391 21.75 11.5304 21.75 11H5Z" fill="#E6A27B"/>
<path d="M16 16H6.25L9.16 27.4C9.3575 28.61 10.41 30.5 11.6275 30.5H20.3775C21.6025 30.5 22.6475 28.61 22.845 27.4L25.75 16H16Z" fill="#D48051"/>
<path d="M9.285 28.5925H9.19L6.25 16H8.75L11.2725 26.02C11.2725 26.02 11.8175 28.5925 9.285 28.5925Z" fill="#E6A27B"/>
<path d="M16 17.75H25.18L25.75 16H16H6.25L6.8175 17.75H16Z" fill="#B15F3A"/>
<path d="M16 13H4.5L5.115 15.16C5.15301 15.3945 5.27325 15.6078 5.45419 15.7617C5.63513 15.9156 5.86495 16.0001 6.1025 16H25.9C26.1375 16.0001 26.3674 15.9156 26.5483 15.7617C26.7293 15.6078 26.8495 15.3945 26.8875 15.16L27.5 13H16Z" stroke="#925739" stroke-width="4" stroke-miterlimit="10"/>
<path d="M16 16H6.25L9.16 28.4C9.25498 28.986 9.5554 29.5191 10.0075 29.9038C10.4596 30.2886 11.0338 30.4999 11.6275 30.5H20.3775C20.9712 30.4999 21.5454 30.2886 21.9975 29.9038C22.4496 29.5191 22.75 28.986 22.845 28.4L25.75 16H16Z" stroke="#925739" stroke-width="4" stroke-miterlimit="10"/>
<path d="M27 11H5C4.44772 11 4 11.4477 4 12C4 12.5523 4.44772 13 5 13H27C27.5523 13 28 12.5523 28 12C28 11.4477 27.5523 11 27 11Z" stroke="#925739" stroke-width="4" stroke-miterlimit="10"/>
<path d="M19.25 19.25H12.75C12.1977 19.25 11.75 19.6977 11.75 20.25V27.75C11.75 28.3023 12.1977 28.75 12.75 28.75H19.25C19.8023 28.75 20.25 28.3023 20.25 27.75V20.25C20.25 19.6977 19.8023 19.25 19.25 19.25Z" fill="#BC693D"/>
<path d="M17.375 26.75C17.8582 26.75 18.25 26.1344 18.25 25.375C18.25 24.6156 17.8582 24 17.375 24C16.8918 24 16.5 24.6156 16.5 25.375C16.5 26.1344 16.8918 26.75 17.375 26.75Z" stroke="#D48051" stroke-width="4" stroke-miterlimit="10" stroke-linecap="round"/>
<path d="M16.699 23.2329C17.0009 22.8555 16.7649 22.1651 16.1719 21.6907C15.5789 21.2163 14.8535 21.1376 14.5516 21.515C14.2497 21.8923 14.4857 22.5828 15.0787 23.0572C15.6717 23.5316 16.3971 23.6103 16.699 23.2329Z" stroke="#D48051" stroke-width="4" stroke-miterlimit="10" stroke-linecap="round"/>
<path d="M14.2673 25.2382C15.0167 25.1155 15.5609 24.6294 15.4828 24.1525C15.4047 23.6756 14.7339 23.3885 13.9845 23.5112C13.2351 23.6339 12.6909 24.12 12.769 24.5969C12.8471 25.0738 13.5179 25.3609 14.2673 25.2382Z" stroke="#D48051" stroke-width="4" stroke-miterlimit="10" stroke-linecap="round"/>
<path d="M19.3 21.7773C18.8159 22.4615 18.2048 23.0463 17.5 23.4998C16.875 23.8182 16.2146 24.0615 15.5325 24.2248" stroke="#D48051" stroke-width="4" stroke-miterlimit="10" stroke-linecap="round"/>
<path d="M8.5 31.5H29" stroke="#9A9A96" stroke-width="4" stroke-miterlimit="10" stroke-linecap="round"/>
<path d="M3.5 31.5H5.75" stroke="#9A9A96" stroke-width="4" stroke-miterlimit="10" stroke-linecap="round"/>
<path d="M25.7157 0.963751L24.1058 7.26123L27.9812 8.25193L29.5911 1.95445L25.7157 0.963751Z" fill="#AE937C"/>
<path d="M25.8375 0.47998L24.4775 5.80748C24.6684 5.85629 24.8671 5.867 25.0622 5.83901C25.2572 5.81102 25.4448 5.74487 25.6143 5.64434C25.7838 5.54382 25.9318 5.41088 26.0499 5.25313C26.168 5.09539 26.2538 4.91592 26.3025 4.72498L27.3025 0.849981L25.8375 0.47998Z" fill="#D1B6A1"/>
<path d="M28.23 7.7523L30.0075 0.799805" stroke="#9A9A96" stroke-width="4" stroke-miterlimit="10"/>
<path d="M24.355 6.7625L26.02 0.25" stroke="#9A9A96" stroke-width="4" stroke-miterlimit="10"/>
<path d="M20.35 30.5C25.4775 28.97 26.35 26.0725 27.215 24.8375L29.8925 14.36L19.72 11.77L17.0425 22.25C17.215 23.75 16.5875 26.7075 20.35 30.5Z" fill="#3C6B80"/>
<path opacity="0.29" d="M19.7201 11.77L17.0601 22.185C17.251 22.2338 17.4496 22.2445 17.6447 22.2166C17.8397 22.1886 18.0274 22.1224 18.1968 22.0219C18.3663 21.9214 18.5143 21.7884 18.6324 21.6307C18.7505 21.4729 18.8364 21.2935 18.8851 21.1025L20.8051 13.6025C20.996 13.6513 21.1946 13.662 21.3897 13.6341C21.5847 13.6061 21.7724 13.5399 21.9418 13.4394C22.1113 13.3389 22.2593 13.2059 22.3774 13.0482C22.4955 12.8904 22.5814 12.711 22.6301 12.52L19.7201 11.77Z" fill="white"/>
<path d="M24.355 6.75L23.225 14.215C23.225 14.215 22.1675 19.3625 23.135 19.61C24.1025 19.8575 25.635 14.8325 25.635 14.8325L28.23 7.75L24.355 6.75Z" fill="#0E5939"/>
<path opacity="0.29" d="M24.6825 12.33L25.81 7.135L24.355 6.75L23.335 13.5925C24.4425 13.43 24.6825 12.33 24.6825 12.33Z" fill="white"/>
<path d="M26.464 9.62486C26.5666 9.22355 26.3244 8.81506 25.9231 8.71247C25.5218 8.60988 25.1133 8.85204 25.0107 9.25335C24.9081 9.65466 25.1503 10.0631 25.5516 10.1657C25.9529 10.2683 26.3614 10.0262 26.464 9.62486Z" fill="#C2C3CC"/>
<path d="M23.4875 12.7324C23.4875 12.7324 22.54 17.9099 23.5075 18.1574C24.475 18.4049 26.1275 13.4074 26.1275 13.4074" stroke="#213F4D" stroke-width="4" stroke-linecap="round" stroke-linejoin="round"/>
<path d="M17.0425 22.25C17.215 23.75 16.5875 26.7075 20.35 30.5C25.4775 28.97 26.35 26.0725 27.215 24.8375L29.8925 14.36L26.125 13.3975L28.23 7.75L24.355 6.75L23.4875 12.7325L19.72 11.77L17.0425 22.25Z" stroke="#213F4D" stroke-width="4" stroke-linecap="round" stroke-linejoin="round"/>
<path d="M23.5075 18.1577L22.33 22.7577" stroke="#213F4D" stroke-width="4" stroke-linecap="round" stroke-linejoin="round"/>
<path d="M29 11.25H31.5" stroke="#EEFAFF" stroke-width="2" stroke-miterlimit="10"/>
<path d="M30.25 12.5V10" stroke="#EEFAFF" stroke-width="2" stroke-miterlimit="10"/>
<path d="M6.77996 25.9698C6.67507 25.8651 6.54149 25.7937 6.39609 25.7649C6.25069 25.736 6.1 25.7508 5.96303 25.8075C5.82607 25.8643 5.70898 25.9603 5.62656 26.0835C5.54414 26.2067 5.50009 26.3516 5.49996 26.4998C5.49983 26.3516 5.45577 26.2067 5.37335 26.0835C5.29093 25.9603 5.17384 25.8643 5.03688 25.8075C4.89992 25.7508 4.74922 25.736 4.60382 25.7649C4.45842 25.7937 4.32484 25.8651 4.21996 25.9698C4.1526 26.0385 4.0998 26.1201 4.06472 26.2097C4.02964 26.2993 4.013 26.395 4.01581 26.4912C4.01861 26.5874 4.04079 26.682 4.08102 26.7694C4.12126 26.8568 4.17871 26.9352 4.24996 26.9998L5.49996 28.4998L6.74996 26.9998C6.8212 26.9352 6.87866 26.8568 6.91889 26.7694C6.95912 26.682 6.9813 26.5874 6.98411 26.4912C6.98691 26.395 6.97027 26.2993 6.93519 26.2097C6.90011 26.1201 6.84731 26.0385 6.77996 25.9698Z" stroke="white" stroke-width="2" stroke-miterlimit="10" stroke-linecap="square"/>
<path d="M4.5 7.5C5.19036 7.5 5.75 6.94036 5.75 6.25C5.75 5.55964 5.19036 5 4.5 5C3.80964 5 3.25 5.55964 3.25 6.25C3.25 6.94036 3.80964 7.5 4.5 7.5Z" stroke="white" stroke-width="2" stroke-miterlimit="10" stroke-linecap="square"/>
<path d="M9.80752 20.9398C9.80752 20.9398 12.75 20.4998 11.75 26.7498C11.75 26.7498 8.11502 24.1273 9.80752 20.9398Z" fill="#9EC45B"/>
<path d="M2.12255 15.0801C2.12255 15.0801 5.09505 15.2076 2.93005 21.1551C2.93005 21.1551 -0.14245 17.8901 2.12255 15.0801Z" fill="#749934"/>
<path d="M7.03244 11.6377C7.03244 11.6377 5.00244 11.2627 7.06744 7.3877C7.06744 7.3877 8.86244 9.9277 7.03244 11.6377Z" fill="#82AD44"/>
<path d="M6.61748 4.87758C6.61748 4.87758 4.96248 3.64258 8.52998 1.08008C8.52748 1.08258 9.01248 4.15258 6.61748 4.87758Z" fill="#82AD44"/>
<path d="M13.6125 16.4777C13.6125 16.4777 12.6775 18.3177 9.54504 15.2502C9.54504 15.2502 12.5 14.2502 13.6125 16.4777Z" fill="#ADCC71"/>
</g>
<defs>
<clipPath id="clip0_415_2299">
<rect width="32" height="32" fill="white"/>
</clipPath>
</defs>
</svg>
