<svg width="32" height="32" viewBox="0 0 32 32" fill="none" xmlns="http://www.w3.org/2000/svg">
<g clip-path="url(#clip0_415_2294)">
<path d="M31.5 14.15L18.35 0.95C17.7 0.35 16.9 0 16 0C15.1 0 14.3 0.35 13.65 0.95L0.500024 14.15C0.300024 14.35 0.150024 14.65 0.150024 14.95C0.150024 15.25 0.250024 15.55 0.500024 15.75C0.900024 16.15 1.65002 16.15 2.10002 15.75L15.25 2.55C15.45 2.35 15.75 2.25 16 2.25C16.3 2.25 16.55 2.35 16.75 2.55L29.95 15.7C30.35 16.1 31.1 16.1 31.55 15.7C31.75 15.5 31.9 15.2 31.9 14.9C31.85 14.65 31.75 14.35 31.5 14.15ZM22.85 24.5L16.7 18.35C16.25 17.9 16.05 17.25 16.1 16.6C16.25 15.45 15.85 14.3 15.05 13.45C14.4 12.8 13.55 12.4 12.65 12.35L13.25 12.95C14.35 14.05 14.35 15.9 13.25 17C12.7 17.55 12 17.85 11.2 17.85C10.45 17.85 9.70002 17.55 9.20002 17L8.60003 16.4C8.65003 17.3 9.05002 18.15 9.70002 18.8C10.55 19.65 11.7 20.05 12.85 19.85C12.95 19.85 13.05 19.85 13.1 19.85C13.65 19.85 14.2 20.05 14.55 20.45L20.8 26.7C21.4 27.3 22.4 27.25 22.95 26.65C23.5 26.05 23.45 25.1 22.85 24.5ZM22.1 25.85C22 25.95 21.85 26 21.7 26C21.55 26 21.45 25.95 21.35 25.85L20.9 25.4C20.7 25.2 20.7 24.85 20.9 24.65C21.1 24.45 21.45 24.45 21.65 24.65L22.1 25.1C22.3 25.3 22.3 25.65 22.1 25.85ZM22.85 24.5L16.7 18.35C16.25 17.9 16.05 17.25 16.1 16.6C16.25 15.45 15.85 14.3 15.05 13.45C14.4 12.8 13.55 12.4 12.65 12.35L13.25 12.95C14.35 14.05 14.35 15.9 13.25 17C12.7 17.55 12 17.85 11.2 17.85C10.45 17.85 9.70002 17.55 9.20002 17L8.60003 16.4C8.65003 17.3 9.05002 18.15 9.70002 18.8C10.55 19.65 11.7 20.05 12.85 19.85C12.95 19.85 13.05 19.85 13.1 19.85C13.65 19.85 14.2 20.05 14.55 20.45L20.8 26.7C21.4 27.3 22.4 27.25 22.95 26.65C23.5 26.05 23.45 25.1 22.85 24.5ZM22.1 25.85C22 25.95 21.85 26 21.7 26C21.55 26 21.45 25.95 21.35 25.85L20.9 25.4C20.7 25.2 20.7 24.85 20.9 24.65C21.1 24.45 21.45 24.45 21.65 24.65L22.1 25.1C22.3 25.3 22.3 25.65 22.1 25.85ZM22.85 24.5L16.7 18.35C16.25 17.9 16.05 17.25 16.1 16.6C16.25 15.45 15.85 14.3 15.05 13.45C14.4 12.8 13.55 12.4 12.65 12.35L13.25 12.95C14.35 14.05 14.35 15.9 13.25 17C12.7 17.55 12 17.85 11.2 17.85C10.45 17.85 9.70002 17.55 9.20002 17L8.60003 16.4C8.65003 17.3 9.05002 18.15 9.70002 18.8C10.55 19.65 11.7 20.05 12.85 19.85C12.95 19.85 13.05 19.85 13.1 19.85C13.65 19.85 14.2 20.05 14.55 20.45L20.8 26.7C21.4 27.3 22.4 27.25 22.95 26.65C23.5 26.05 23.45 25.1 22.85 24.5ZM22.1 25.85C22 25.95 21.85 26 21.7 26C21.55 26 21.45 25.95 21.35 25.85L20.9 25.4C20.7 25.2 20.7 24.85 20.9 24.65C21.1 24.45 21.45 24.45 21.65 24.65L22.1 25.1C22.3 25.3 22.3 25.65 22.1 25.85ZM22.85 24.5L16.7 18.35C16.25 17.9 16.05 17.25 16.1 16.6C16.25 15.45 15.85 14.3 15.05 13.45C14.4 12.8 13.55 12.4 12.65 12.35L13.25 12.95C14.35 14.05 14.35 15.9 13.25 17C12.7 17.55 12 17.85 11.2 17.85C10.45 17.85 9.70002 17.55 9.20002 17L8.60003 16.4C8.65003 17.3 9.05002 18.15 9.70002 18.8C10.55 19.65 11.7 20.05 12.85 19.85C12.95 19.85 13.05 19.85 13.1 19.85C13.65 19.85 14.2 20.05 14.55 20.45L20.8 26.7C21.4 27.3 22.4 27.25 22.95 26.65C23.5 26.05 23.45 25.1 22.85 24.5ZM22.1 25.85C22 25.95 21.85 26 21.7 26C21.55 26 21.45 25.95 21.35 25.85L20.9 25.4C20.7 25.2 20.7 24.85 20.9 24.65C21.1 24.45 21.45 24.45 21.65 24.65L22.1 25.1C22.3 25.3 22.3 25.65 22.1 25.85ZM22.85 24.5L16.7 18.35C16.25 17.9 16.05 17.25 16.1 16.6C16.25 15.45 15.85 14.3 15.05 13.45C14.4 12.8 13.55 12.4 12.65 12.35L13.25 12.95C14.35 14.05 14.35 15.9 13.25 17C12.7 17.55 12 17.85 11.2 17.85C10.45 17.85 9.70002 17.55 9.20002 17L8.60003 16.4C8.65003 17.3 9.05002 18.15 9.70002 18.8C10.55 19.65 11.7 20.05 12.85 19.85C12.95 19.85 13.05 19.85 13.1 19.85C13.65 19.85 14.2 20.05 14.55 20.45L20.8 26.7C21.4 27.3 22.4 27.25 22.95 26.65C23.5 26.05 23.45 25.1 22.85 24.5ZM22.1 25.85C22 25.95 21.85 26 21.7 26C21.55 26 21.45 25.95 21.35 25.85L20.9 25.4C20.7 25.2 20.7 24.85 20.9 24.65C21.1 24.45 21.45 24.45 21.65 24.65L22.1 25.1C22.3 25.3 22.3 25.65 22.1 25.85ZM26.95 1.25H25.8C25.2 1.25 24.7 1.75 24.7 2.35V5.7C24.7 5.75 24.7 5.75 24.7 5.8L28.1 9.2V2.35C28.1 1.75 27.6 1.25 26.95 1.25Z" fill="#9A9A96"/>
<path d="M30.25 30.9498H28.85V16.2998C28.85 16.2498 28.85 16.1998 28.9 16.1498L16 3.2998L3.14995 16.1498C3.14995 16.1998 3.19995 16.2498 3.19995 16.2998V30.9498H2.24995C1.94995 30.9498 1.69995 31.1998 1.69995 31.4998C1.74995 31.7498 1.99995 31.9998 2.24995 31.9998H30.25C30.5499 31.9998 30.7999 31.7498 30.7999 31.4498C30.7999 31.1998 30.5499 30.9498 30.25 30.9498ZM7.49995 15.7998C7.54995 15.3498 7.89995 14.9998 8.34995 14.9998C8.54995 14.9998 8.79995 15.0998 8.94995 15.2498L9.89995 16.1998C10.6 16.8998 11.75 16.8998 12.45 16.1998C13.15 15.4998 13.15 14.3498 12.45 13.6498L11.5 12.6998C11.25 12.4498 11.2 12.0998 11.3 11.7998C11.4 11.4998 11.7 11.2998 12.05 11.2498C13.45 11.1498 14.8 11.6498 15.75 12.6498C16.8 13.6998 17.3 15.1998 17.15 16.6998C17.1 16.9998 17.2 17.3498 17.45 17.5498L23.6 23.6998C24.6 24.6998 24.65 26.2998 23.7 27.2998C23.2 27.7998 22.55 28.0998 21.85 28.0998C21.15 28.0998 20.5499 27.8498 20.0499 27.3498L13.85 21.1998C13.6 20.9498 13.3 20.8498 13 20.8998C11.5 21.0998 9.99995 20.5998 8.94995 19.4998C7.94995 18.5498 7.44995 17.1998 7.49995 15.7998Z" fill="#213F4D"/>
</g>
<defs>
<clipPath id="clip0_415_2294">
<rect width="32" height="32" fill="white"/>
</clipPath>
</defs>
</svg>
