<svg width="36" height="36" viewBox="0 0 36 36" fill="none" xmlns="http://www.w3.org/2000/svg">
<path d="M26.7226 12.1499H22.1027C21.778 12.1499 21.4529 12.1783 21.1353 12.246C10.8288 14.4439 2.78418 24.5379 2.78418 24.5379H27.3784C27.8098 22.7631 29.9204 22.4334 31.4428 22.4357C32.3308 22.437 33.0577 21.7334 33.0577 20.8454V20.8342C33.0577 20.5023 32.9539 20.1786 32.7607 19.9087L27.4919 12.5455C27.3144 12.2972 27.0279 12.1499 26.7226 12.1499ZM25.4861 16.9624C25.2901 17.5393 24.6628 17.8473 24.0802 17.6569C22.1143 16.996 18.9386 17.3153 17.1463 18.357C16.634 18.6545 15.9391 18.4875 15.6341 17.9537C15.326 17.4216 15.5053 16.7439 16.0374 16.4359C18.3785 15.0804 22.2207 14.694 24.7859 15.5565C25.3685 15.7526 25.6765 16.3799 25.4861 16.9624Z" fill="#305C71"/>
<path d="M32.7589 19.9073L27.4912 12.5432C27.3165 12.2997 27.0253 12.1514 26.7236 12.1514H25.104C26.6309 14.6517 29.5556 20.4048 20.1832 22.0541C19.6083 22.1553 19.0218 22.2072 18.4382 22.2144L4.72122 22.3849C3.4771 23.6714 2.78357 24.5396 2.78357 24.5396H27.38C27.8089 22.7608 29.9212 22.4325 31.4406 22.4378C32.3301 22.4378 33.0553 21.7337 33.0553 20.8443V20.8337C33.0553 20.5002 32.9547 20.1773 32.7589 19.9073Z" fill="#213F4D"/>
<path d="M2.68226 24.6611L1.05872 26.9148H26.8013C27.0937 26.9148 27.3307 26.6778 27.3307 26.3854V24.6611H2.68226Z" fill="#9A9A96"/>
<path d="M35.085 12.9435C34.7717 12.8551 33.9401 12.6201 34.2203 10.9458C34.4685 9.46126 33.114 8.22842 31.709 8.63373C30.5699 8.95869 27.8874 11.0049 27.0477 11.6596C26.9417 11.6356 26.8331 11.6205 26.7224 11.6205H22.1027C21.7222 11.6205 21.3595 11.6567 21.0248 11.728C12.2407 13.6015 3.75994 22.0237 2.34186 24.256C2.2418 24.3399 2.33223 24.2513 0.629056 26.605C0.513009 26.7663 0.496967 26.9789 0.587444 27.1556C0.67792 27.3327 0.859879 27.4438 1.05867 27.4438H26.8011C27.385 27.4438 27.8599 26.969 27.8599 26.385V24.7391C27.8706 24.7135 27.886 24.6906 27.8927 24.6629C28.2339 23.2595 30.0028 22.9651 31.4451 22.9651C33.2283 22.9651 34.1749 20.9738 33.1913 19.6004L27.9609 12.2912C29.3413 11.2284 31.2702 9.86006 31.9996 9.65169C32.6752 9.45808 33.2933 10.0695 33.176 10.771C32.796 13.042 34.0286 13.7454 34.7971 13.9625C35.083 14.0424 35.372 13.8748 35.4506 13.597C35.5299 13.3155 35.3663 13.0231 35.085 12.9435ZM2.09246 26.3851L2.95328 25.1903H26.8014L26.8019 26.3851H2.09246ZM31.427 21.9062C29.0989 21.9062 27.5451 22.6486 26.9937 24.0084H3.93634C6.13541 21.5438 13.0023 14.5216 21.2456 12.7636C21.508 12.7077 21.7962 12.6793 22.1028 12.6793H26.7225C26.8566 12.6793 26.9833 12.7444 27.0611 12.8535L32.3301 20.2169C32.8182 20.8974 32.3703 21.9062 31.427 21.9062Z" fill="black"/>
<path d="M30.5378 20.5623L29.7747 19.5156C29.6455 19.3382 29.6845 19.0901 29.8616 18.9608C30.0382 18.8318 30.2868 18.8704 30.4164 19.0477L31.1795 20.0944C31.3087 20.2718 31.2697 20.5199 31.0926 20.6492C30.916 20.7779 30.6678 20.7402 30.5378 20.5623ZM28.7239 18.248L28.1298 17.4329C28.0006 17.2555 28.0396 17.0071 28.2167 16.8781C28.3938 16.7486 28.6419 16.7879 28.7715 16.965L29.3655 17.7801C29.4948 17.9574 29.4557 18.2058 29.2787 18.3349C29.1011 18.4642 28.8526 18.4248 28.7239 18.248Z" fill="#9A9A96"/>
</svg>
