<svg width="36" height="36" viewBox="0 0 36 36" fill="none" xmlns="http://www.w3.org/2000/svg">
<path d="M21.0938 34.3062H4.21875C3.28677 34.3062 2.53125 33.5507 2.53125 32.6187V29.2437C2.78901 16.4749 22.5252 16.4446 22.7812 29.2439L22.7812 32.6187C22.7812 33.5507 22.0257 34.3062 21.0938 34.3062Z" fill="#213F4D"/>
<path d="M21.0938 34.8687H4.21875C2.97812 34.8687 1.96875 33.8593 1.96875 32.6187V29.2437C2.30087 15.7195 23.0118 15.687 23.3437 29.2438L23.3438 32.6187C23.3438 33.8593 22.3344 34.8687 21.0938 34.8687ZM12.0938 20.2437C7.13122 20.2437 3.09375 24.2812 3.09375 29.2437V32.6187C3.09375 33.2392 3.5983 33.7437 4.21875 33.7437H21.0938C21.7142 33.7437 22.2188 33.2392 22.2188 32.6187V29.2437C22.2332 23.7839 17.4472 19.7589 12.0938 20.2437Z" fill="#3C6B80"/>
<path d="M16.0312 28.1187L12.6562 32.0562L9.28125 28.1187L11.5312 21.3687H13.7812L16.0312 28.1187Z" fill="#9A9A96"/>
<path d="M12.6562 32.6187C12.492 32.6187 12.336 32.547 12.2291 32.4223L8.85412 28.4848C8.72558 28.3348 8.68521 28.1283 8.74755 27.9407L10.9976 21.1907C11.0742 20.9611 11.289 20.8062 11.5312 20.8062H13.7812C14.0235 20.8062 14.2382 20.9611 14.3149 21.1907L16.5649 27.9407C16.6272 28.1283 16.5868 28.3348 16.4583 28.4848L13.0833 32.4223C12.9765 32.547 12.8205 32.6187 12.6562 32.6187ZM9.91567 27.9945L12.6562 31.1918L15.3968 27.9945L13.3758 21.9312H11.9366L9.91567 27.9945Z" fill="#3C6B80"/>
<path d="M33.4688 25.3062C33.4688 30.2767 29.4394 34.3062 24.4688 34.3062C12.5305 33.8321 12.5339 16.7784 24.4689 16.3062C29.4394 16.3062 33.4688 20.3356 33.4688 25.3062Z" fill="#9A9A96"/>
<path d="M24.4688 34.8691C19.1959 34.8691 14.9062 30.5794 14.9062 25.3066C15.4314 12.6206 33.5081 12.6243 34.0313 25.3066C34.0312 30.5794 29.7416 34.8691 24.4688 34.8691ZM24.4688 16.8691C19.8163 16.8691 16.0312 20.6541 16.0312 25.3066C16.4948 36.5 32.4445 36.4968 32.9063 25.3065C32.9062 20.6541 29.1212 16.8691 24.4688 16.8691Z" fill="#3C6B80"/>
<path d="M25.5938 20.8065C25.5562 22.2903 23.3811 22.29 23.3438 20.8065C23.3813 19.3228 25.5564 19.3231 25.5938 20.8065Z" fill="#213F4D"/>
<path d="M24.4688 22.4937C22.2436 22.4353 22.244 19.1767 24.4688 19.1187C26.6939 19.177 26.6935 22.4357 24.4688 22.4937ZM24.4688 20.2437C23.7296 20.2569 23.7297 21.3555 24.4688 21.3687C25.2079 21.3554 25.2078 20.2568 24.4688 20.2437Z" fill="#3C6B80"/>
<path d="M24.4688 28.6812C24.1581 28.6812 23.9062 28.4293 23.9062 28.1187V21.9312C23.9062 21.6205 24.1581 21.3687 24.4688 21.3687C24.7794 21.3687 25.0312 21.6205 25.0312 21.9312V28.1187C25.0312 28.4293 24.7794 28.6812 24.4688 28.6812Z" fill="#3C6B80"/>
<path d="M27.8438 30.3687H21.0938C19.612 30.3318 19.6087 28.1564 21.0938 28.1187H27.8438C29.3255 28.1555 29.3289 30.3309 27.8438 30.3687Z" fill="#213F4D"/>
<path d="M27.8437 30.9312H21.0937C18.8705 30.8736 18.8673 27.6145 21.0937 27.5562H27.8437C30.0669 27.6137 30.0701 30.8728 27.8437 30.9312ZM21.0937 28.6812C20.3566 28.6938 20.3529 29.7928 21.0937 29.8062H27.8437C28.1538 29.8062 28.4062 29.5537 28.4062 29.2437C28.4062 28.9336 28.1538 28.6812 27.8437 28.6812H21.0937ZM30.0937 21.3687H25.5937C24.8557 21.3565 24.8533 20.2563 25.5937 20.2437H30.0937C30.8317 20.2558 30.8341 21.356 30.0937 21.3687ZM23.3437 21.3687H18.8437C18.1057 21.3565 18.1033 20.2563 18.8437 20.2437H23.3437C24.0817 20.2558 24.0841 21.356 23.3437 21.3687Z" fill="#3C6B80"/>
<path d="M12.6562 21.9312C11.4136 21.9312 10.4062 20.9238 10.4062 19.6812V17.9937H14.9062V19.6812C14.9062 20.9238 13.8989 21.9312 12.6562 21.9312Z" fill="#9A9A96"/>
<path d="M12.6562 22.4937C11.1055 22.4937 9.84375 21.2319 9.84375 19.6812V17.9937C9.84375 17.683 10.0956 17.4312 10.4062 17.4312H14.9062C15.2169 17.4312 15.4688 17.683 15.4688 17.9937V19.6812C15.4688 21.2319 14.207 22.4937 12.6562 22.4937ZM10.9688 18.5562V19.6812C10.9688 20.6117 11.7257 21.3687 12.6562 21.3687C13.5868 21.3687 14.3438 20.6117 14.3438 19.6812V18.5562H10.9688Z" fill="#3C6B80"/>
<path d="M21.0712 9.53359C20.2906 8.67526 18.3573 7.43758 17.0437 7.10921C14.8657 8.84358 10.4466 8.84346 8.26873 7.10921C6.95509 7.43759 5.02189 8.67526 4.24121 9.53359C5.26795 -0.877647 20.0483 -0.870003 21.0712 9.53359Z" fill="#213F4D"/>
<path d="M21.0715 10.0964C20.9262 10.0964 20.7834 10.0404 20.6757 9.93385C19.6807 8.94994 18.4606 8.17601 17.1365 7.72999C14.7065 9.40413 10.606 9.40409 8.17602 7.72999C6.85234 8.17576 5.63203 8.94958 4.63678 9.93385C4.47061 10.0984 4.21985 10.1429 4.00726 10.0454C3.7944 9.94813 3.66422 9.72923 3.68015 9.49604C3.81912 7.4405 4.67386 5.47945 6.0867 3.97404C11.3441 -1.75324 21.1577 1.72443 21.6323 9.49616C21.6602 9.8125 21.3879 10.1023 21.0715 10.0964ZM17.0436 6.54704C18.202 6.8087 19.3014 7.42467 20.2703 8.11341C18.1079 0.317551 7.20166 0.322839 5.04217 8.11341C5.96372 7.43619 7.01751 6.89941 8.10571 6.57121C8.27435 6.52012 8.45782 6.55143 8.60009 6.65497C10.7069 8.26226 14.6056 8.26224 16.7124 6.65492C16.8096 6.58411 16.9261 6.54704 17.0436 6.54704Z" fill="#3C6B80"/>
<path d="M21.0937 10.1188C21.0937 14.7763 17.3137 18.5563 12.6562 18.5563C7.79583 18.577 3.87954 14.3806 4.24121 9.53375C5.02188 8.67543 6.95512 7.43775 8.26872 7.10938C10.4467 8.84374 14.8658 8.84362 17.0437 7.10938C18.3573 7.43776 20.2906 8.67543 21.0712 9.53375C21.0881 9.72502 21.0937 9.92188 21.0937 10.1188Z" fill="#9A9A96"/>
<path d="M12.6563 19.1187C7.47347 19.1408 3.28801 14.652 3.68098 9.48367C3.69278 9.35131 3.75128 9.22716 3.84577 9.13378C5.03116 7.95976 6.51205 7.05238 8.10571 6.57095C8.27435 6.51986 8.45783 6.55117 8.6001 6.65471C9.67429 7.43749 11.1149 7.8687 12.6563 7.8687C14.1976 7.8687 15.6382 7.43749 16.7124 6.65471C16.8547 6.55117 17.0379 6.51985 17.2068 6.57094C18.8009 7.05265 20.2815 7.96008 21.4667 9.13378C21.5612 9.22716 21.6197 9.35131 21.6315 9.48369C22.024 14.652 17.8394 19.1408 12.6563 19.1187ZM4.78812 9.78719C4.59091 14.2402 8.19766 18.0048 12.6563 17.9937C17.1146 18.0049 20.7219 14.2401 20.5244 9.78719C19.5597 8.87435 18.3935 8.15275 17.1365 7.72972C14.7065 9.40386 10.606 9.40382 8.17603 7.72972C6.91935 8.15254 5.75296 8.87397 4.78812 9.78719Z" fill="#3C6B80"/>
<path d="M4.21877 10.119C3.15027 10.0071 3.79877 8.48503 4.62776 9.14752C5.00256 9.4918 4.70199 10.1304 4.21877 10.119ZM21.0773 10.1135C20.5998 10.1228 20.3107 9.47269 20.6736 9.13624C21.5016 8.45463 22.1392 10.0134 21.0773 10.1135Z" fill="#3C6B80"/>
<path d="M28.4062 20.8062L26.1562 25.3062C27.2211 25.8864 28.981 26.2053 30.6562 25.3062L28.4062 20.8062ZM20.5312 20.8062L22.7812 25.3062C21.7164 25.8864 19.9565 26.2053 18.2812 25.3062L20.5312 20.8062Z" fill="#213F4D"/>
<path d="M28.4064 26.4315C27.3653 26.4148 25.2046 25.9944 25.6532 25.055C25.6532 25.055 27.9032 20.555 27.9032 20.555C28.0938 20.1737 28.7189 20.1737 28.9095 20.555L31.1595 25.055C31.6536 26.1842 28.6954 26.4564 28.4064 26.4315ZM26.9207 25.0357C27.8173 25.3631 28.801 25.4332 29.8923 25.036L28.4064 22.0642L26.9207 25.0357ZM20.5314 26.4315C20.2419 26.4582 17.2843 26.1823 17.7781 25.055C17.7782 25.055 20.0282 20.555 20.0282 20.555C20.2188 20.1737 20.8439 20.1737 21.0345 20.555L23.2845 25.055C23.7346 25.9944 21.5703 26.4148 20.5314 26.4315ZM19.0455 25.036C20.1354 25.4332 21.1217 25.363 22.017 25.0357L20.5314 22.0642L19.0455 25.036Z" fill="#3C6B80"/>
</svg>
