<svg width="34" height="25" viewBox="0 0 34 25" fill="none" xmlns="http://www.w3.org/2000/svg">
<path d="M16.9992 23.9479L17.0005 23.9479C17.8032 23.9488 18.6119 24.0829 19.3657 24.208C19.6481 24.2548 19.9229 24.3004 20.1867 24.3372C21.1889 24.477 22.115 24.5107 23.0441 24.1688C24.5362 23.6192 25.7155 22.2837 25.9811 20.4641L26.4759 20.5363L25.9811 20.4641C26.2143 18.8671 25.5462 17.3453 24.3169 15.9819C20.4655 11.7111 13.5345 11.7111 9.6831 15.9819L16.9992 23.9479ZM16.9992 23.9479C16.1975 23.9492 15.3897 24.0832 14.6366 24.2081C14.3534 24.2551 14.0779 24.3007 13.8133 24.3376C12.8113 24.4773 11.885 24.5107 10.9559 24.1688L10.9558 24.1688M16.9992 23.9479L10.9558 24.1688M10.9558 24.1688C9.46381 23.6203 8.28354 22.2838 8.01892 20.4644L10.9558 24.1688ZM8.01891 20.4644C7.78673 18.8659 8.45401 17.3452 9.68306 15.9819L8.01891 20.4644Z" fill="#213F4D" stroke="#9A9A96"/>
<path d="M14.7553 4.45415C15.1356 6.40947 14.1078 8.09005 12.6761 8.36856C11.2444 8.64707 9.6615 7.47433 9.28114 5.51901C8.90078 3.56369 9.9286 1.8831 11.3603 1.6046C12.7921 1.32609 14.3749 2.49883 14.7553 4.45415Z" fill="#213F4D" stroke="#9A9A96"/>
<path d="M6.44746 10.3006C6.77364 11.9774 5.89051 13.3951 4.69194 13.6283C3.49337 13.8615 2.14319 12.8782 1.817 11.2014C1.49082 9.52454 2.37395 8.10682 3.57252 7.87367C4.77109 7.64052 6.12128 8.6238 6.44746 10.3006Z" fill="#213F4D" stroke="#9A9A96"/>
<path d="M22.6392 1.60483C24.071 1.88326 25.0989 3.56379 24.7186 5.51913C24.3384 7.47447 22.7556 8.64729 21.3238 8.36886C19.8921 8.09043 18.8642 6.4099 19.2444 4.45456C19.6247 2.49922 21.2075 1.3264 22.6392 1.60483Z" fill="#213F4D" stroke="#9A9A96"/>
<path d="M30.4274 7.87393C31.6259 8.10702 32.5091 9.52469 32.1831 11.2015C31.857 12.8784 30.5068 13.8617 29.3082 13.6286C28.1097 13.3955 27.2265 11.9779 27.5526 10.301C27.8786 8.62419 29.2288 7.64084 30.4274 7.87393Z" fill="#213F4D" stroke="#9A9A96"/>
</svg>
